<?xml version="1.0" encoding="utf-8"?>
<!-- Generator: Adobe Illustrator 16.0.0, SVG Export Plug-In . SVG Version: 6.00 Build 0)  -->
<!DOCTYPE svg PUBLIC "-//W3C//DTD SVG 1.1//EN" "http://www.w3.org/Graphics/SVG/1.1/DTD/svg11.dtd">
<svg version="1.1" id="Layer_1" xmlns="http://www.w3.org/2000/svg" xmlns:xlink="http://www.w3.org/1999/xlink" x="0px" y="0px"
	 width="152px" height="50px" viewBox="0 0 152 50" enable-background="new 0 0 152 50" xml:space="preserve">
<g>
	<linearGradient id="SVGID_1_" gradientUnits="userSpaceOnUse" x1="18.8311" y1="59.4238" x2="101.6259" y2="-6.0904">
		<stop  offset="0" style="stop-color:#FFFFFF"/>
		<stop  offset="0.2204" style="stop-color:#66CC54"/>
		<stop  offset="0.5968" style="stop-color:#93A889"/>
		<stop  offset="0.8441" style="stop-color:#3E563E"/>
		<stop  offset="1" style="stop-color:#000000"/>
	</linearGradient>
	<path fill="url(#SVGID_1_)" d="M52.436,6.5H91.5v1.05v5.95h3V6.598c0,0,0.195-3.098-2.806-3.098H52.531
		c0,0-3.031,0.096-4.031,3.145V33.5h-4.068c0,0-1.932-0.365-1.932,0.778c0,0.071,0,0.191,0,0.191v0.237v1.335
		c0,0,0.264,5.458,6.791,6.458H78.5v-3H49.291c0,0-2.466,0-3.288-3H78.5v-3H52.531L52.436,6.5z"/>
	<linearGradient id="SVGID_2_" gradientUnits="userSpaceOnUse" x1="33.4678" y1="78.5732" x2="116.8029" y2="12.6315">
		<stop  offset="0" style="stop-color:#FFFFFF"/>
		<stop  offset="0.2204" style="stop-color:#66CC54"/>
		<stop  offset="0.5968" style="stop-color:#93A889"/>
		<stop  offset="0.8441" style="stop-color:#3E563E"/>
		<stop  offset="1" style="stop-color:#000000"/>
	</linearGradient>
	<path fill="url(#SVGID_2_)" d="M108.61,28.782c-0.36-1.325-0.881-2.575-1.546-3.719c-0.665-1.143-1.474-2.197-2.402-3.133
		c-0.931-0.937-1.984-1.75-3.137-2.416c-1.149-0.665-2.402-1.124-3.723-1.497c-1.324-0.374-2.726-0.518-4.169-0.518h-9.72
		l-0.163-0.066c-0.699,0.042-1.251,0.44-1.251,1.177v28.691c0,0.232,0.197,0.428,0.318,0.579c0.094,0.118,0.274,0.213,0.405,0.284
		c0.076,0.041,0.179,0.075,0.245,0.103l0.042,0.064c0.122,0.08,0.292,0.168,0.485,0.168h9.496c1.44,0,2.844-0.23,4.174-0.59
		c1.329-0.361,2.587-0.903,3.737-1.569c1.15-0.665,2.215-1.488,3.164-2.424s1.775-1.995,2.454-3.139
		c0.68-1.145,1.211-2.396,1.578-3.713c0.367-1.318,0.555-2.711,0.555-4.138C109.154,31.503,108.971,30.106,108.61,28.782z
		 M86.5,20.5h7.005c1.668,0,3.258,0.479,4.725,1.079c1.466,0.6,2.766,1.532,3.863,2.596c1.097,1.064,1.977,2.384,2.616,3.836
		c0.638,1.447,0.961,3.075,0.961,4.792c0,1.098-0.145,2.185-0.428,3.209c-0.285,1.028-0.69,2.006-1.207,2.896
		s-1.15,1.716-1.887,2.452s-1.564,1.375-2.462,1.896c-0.897,0.523-1.884,1.227-2.932,1.517c-1.046,0.291-2.153,0.728-3.291,0.728
		H86.5V20.5z"/>
</g>
</svg>
